<svg xmlns="http://www.w3.org/2000/svg" viewBox="0 -16 130 130">
  <g fill="#CA4617">
    <path d="M65 29.5 Q67.8 30.3 69.2 34 L74.6 48 Q75.8 51.4 72 51.7 L58 51.7 Q54.2 51.4 55.4 48 L60.8 34 Q62.2 30.3 65 29.5 Z"/>
    <path d="M57.3 54.6 L72.7 54.6 Q75.7 54.6 75.1 57.3 L74.6 59.5 Q74.1 61.7 71.5 61.7 L58.5 61.7 Q55.9 61.7 55.4 59.5 L54.9 57.3 Q54.3 54.6 57.3 54.6 Z"/>
    <path d="M59.8 64.8 L70.2 64.8 Q72.6 64.8 72.1 67 L71.8 68.3 Q71.3 70.2 69.2 70.2 L60.8 70.2 Q58.7 70.2 58.2 68.3 L57.9 67 Q57.4 64.8 59.8 64.8 Z"/>
    <path d="M60.8 73.2 L69.2 73.2 Q71.4 73.4 70.2 75.5 L66.6 80.9 Q65 83.1 63.4 80.9 L59.8 75.5 Q58.6 73.4 60.8 73.2 Z"/>
    <g transform="translate(43,35) rotate(-52) scale(1.04)"><path d="M0 -19 C7.5 -17.5 11 -9 8.6 0.5 C6.7 8 3.6 14 0 19 C-2.4 14 -4.6 7.5 -5.2 0.5 C-5.9 -9 -3.6 -17 0 -19 Z"/></g>
    <g transform="translate(87,35) rotate(52) scale(-1.04,1.04)"><path d="M0 -19 C7.5 -17.5 11 -9 8.6 0.5 C6.7 8 3.6 14 0 19 C-2.4 14 -4.6 7.5 -5.2 0.5 C-5.9 -9 -3.6 -17 0 -19 Z"/></g>
    <g transform="translate(36.5,57) rotate(-74)"><path d="M0 -19 C7.5 -17.5 11 -9 8.6 0.5 C6.7 8 3.6 14 0 19 C-2.4 14 -4.6 7.5 -5.2 0.5 C-5.9 -9 -3.6 -17 0 -19 Z"/></g>
    <g transform="translate(93.5,57) rotate(74) scale(-1,1)"><path d="M0 -19 C7.5 -17.5 11 -9 8.6 0.5 C6.7 8 3.6 14 0 19 C-2.4 14 -4.6 7.5 -5.2 0.5 C-5.9 -9 -3.6 -17 0 -19 Z"/></g>
    <g transform="translate(65,11.5) scale(1,1.08)"><path d="M0 -6.8 C2.9 -5.9 4 -2.2 2.7 2 L0 6.8 L-2.7 2 C-4 -2.2 -2.9 -5.9 0 -6.8 Z"/></g>
    <g transform="translate(74.8,14.2) rotate(27) scale(1,1.08)"><path d="M0 -6.8 C2.9 -5.9 4 -2.2 2.7 2 L0 6.8 L-2.7 2 C-4 -2.2 -2.9 -5.9 0 -6.8 Z"/></g>
    <g transform="translate(55.2,14.2) rotate(-27) scale(1,1.08)"><path d="M0 -6.8 C2.9 -5.9 4 -2.2 2.7 2 L0 6.8 L-2.7 2 C-4 -2.2 -2.9 -5.9 0 -6.8 Z"/></g>
    <g transform="translate(82.6,20.8) rotate(54) scale(1,1.08)"><path d="M0 -6.8 C2.9 -5.9 4 -2.2 2.7 2 L0 6.8 L-2.7 2 C-4 -2.2 -2.9 -5.9 0 -6.8 Z"/></g>
    <g transform="translate(47.4,20.8) rotate(-54) scale(1,1.08)"><path d="M0 -6.8 C2.9 -5.9 4 -2.2 2.7 2 L0 6.8 L-2.7 2 C-4 -2.2 -2.9 -5.9 0 -6.8 Z"/></g>
    <g transform="translate(68.3,20.6) rotate(14) scale(0.68)"><path d="M0 -6.8 C2.9 -5.9 4 -2.2 2.7 2 L0 6.8 L-2.7 2 C-4 -2.2 -2.9 -5.9 0 -6.8 Z"/></g>
    <g transform="translate(61.7,20.6) rotate(-14) scale(0.68)"><path d="M0 -6.8 C2.9 -5.9 4 -2.2 2.7 2 L0 6.8 L-2.7 2 C-4 -2.2 -2.9 -5.9 0 -6.8 Z"/></g>
    <g transform="translate(74.2,23.6) rotate(41) scale(0.68)"><path d="M0 -6.8 C2.9 -5.9 4 -2.2 2.7 2 L0 6.8 L-2.7 2 C-4 -2.2 -2.9 -5.9 0 -6.8 Z"/></g>
    <g transform="translate(55.8,23.6) rotate(-41) scale(0.68)"><path d="M0 -6.8 C2.9 -5.9 4 -2.2 2.7 2 L0 6.8 L-2.7 2 C-4 -2.2 -2.9 -5.9 0 -6.8 Z"/></g>
    <g transform="translate(65,25.4) scale(0.56)"><path d="M0 -6.8 C2.9 -5.9 4 -2.2 2.7 2 L0 6.8 L-2.7 2 C-4 -2.2 -2.9 -5.9 0 -6.8 Z"/></g>
  </g>
</svg>
